<?xml version="1.0" standalone="no"?>
<!DOCTYPE svg PUBLIC "-//W3C//DTD SVG 20010904//EN"
 "http://www.w3.org/TR/2001/REC-SVG-20010904/DTD/svg10.dtd">
<svg version="1.0" xmlns="http://www.w3.org/2000/svg"
 width="190.000000pt" height="190.000000pt" viewBox="0 0 190.000000 190.000000"
 preserveAspectRatio="xMidYMid meet">

<g transform="translate(0.000000,190.000000) scale(0.100000,-0.100000)"
fill="#000000" stroke="none">
<path d="M1069 1723 c-19 -5 -39 -44 -39 -76 0 -38 -16 -49 -91 -69 -109 -27
-190 -89 -173 -132 7 -18 74 -56 99 -56 8 0 15 -4 15 -10 0 -5 -10 -10 -23
-10 -40 0 -171 -40 -215 -67 -25 -14 -56 -45 -73 -71 -24 -38 -29 -56 -29
-109 0 -79 16 -118 67 -164 63 -57 199 -99 320 -99 49 0 49 0 58 -120 10 -148
16 -179 31 -173 9 3 14 -2 14 -16 0 -25 15 -28 17 -3 1 15 12 268 13 300 0 7
14 12 35 12 51 0 178 28 229 49 55 24 116 77 116 102 0 25 -12 24 -35 -1 -24
-27 -127 -58 -234 -70 -126 -14 -120 -16 -115 28 1 20 4 98 5 172 0 75 3 148
6 163 l6 28 77 -7 c61 -5 83 -3 108 10 60 31 34 50 -78 61 -115 10 -110 7
-110 81 l0 64 44 0 c72 0 103 -21 51 -34 -39 -10 -30 -26 14 -26 52 0 102 39
85 67 -16 26 -55 43 -121 51 l-58 7 3 63 c2 34 2 61 0 61 -1 -1 -10 -3 -19 -6z
m-61 -243 c-3 -28 -7 -53 -10 -56 -9 -9 -97 18 -110 33 -11 13 -9 18 11 32 27
18 79 39 100 40 10 1 12 -11 9 -49z m-25 -342 c-3 -106 -9 -196 -12 -201 -9
-9 -142 8 -208 28 -60 18 -128 76 -138 118 -30 120 128 243 317 246 l47 1 -6
-192z"/>
<path d="M60 450 l0 -50 55 0 c30 0 55 5 55 10 0 6 -18 10 -40 10 -22 0 -40 5
-40 10 0 6 16 10 35 10 19 0 35 5 35 10 0 6 -16 10 -35 10 -19 0 -35 5 -35 10
0 6 18 10 40 10 22 0 40 5 40 10 0 6 -25 10 -55 10 l-55 0 0 -50z"/>
<path d="M190 456 c0 -49 9 -56 69 -56 47 0 61 14 61 62 0 49 -27 54 -32 6 -3
-29 -7 -33 -35 -36 -32 -3 -33 -2 -33 32 0 25 -4 36 -15 36 -11 0 -15 -12 -15
-44z"/>
<path d="M342 488 c-16 -16 -15 -63 2 -77 8 -7 36 -11 63 -9 44 3 48 5 51 31
3 24 0 27 -27 27 -17 0 -31 -4 -31 -10 0 -5 7 -10 15 -10 8 0 15 -4 15 -10 0
-5 -13 -10 -29 -10 -21 0 -32 6 -36 20 -10 33 4 43 52 36 33 -4 44 -3 41 7 -6
17 -100 21 -116 5z"/>
<path d="M490 450 l0 -50 55 0 c30 0 55 5 55 10 0 6 -18 10 -40 10 -22 0 -40
5 -40 10 0 6 16 10 35 10 19 0 35 5 35 10 0 6 -16 10 -35 10 -19 0 -35 5 -35
10 0 6 18 10 40 10 22 0 40 5 40 10 0 6 -25 10 -55 10 l-55 0 0 -50z"/>
<path d="M620 450 c0 -38 4 -50 15 -50 11 0 15 11 15 37 l0 38 27 -38 c17 -25
34 -37 50 -37 21 0 23 4 23 50 0 38 -4 50 -15 50 -10 0 -15 -10 -15 -32 l-1
-33 -28 33 c-15 18 -37 32 -49 32 -20 0 -22 -5 -22 -50z"/>
<path d="M844 485 c-12 -31 4 -45 51 -45 27 0 45 -5 45 -11 0 -8 -16 -9 -51
-5 -40 5 -50 4 -47 -6 3 -9 24 -13 64 -13 56 0 59 1 59 25 0 22 -5 25 -40 28
-22 2 -44 8 -50 14 -7 7 4 9 38 4 38 -4 47 -3 47 9 0 22 -108 21 -116 0z"/>
<path d="M990 492 c0 -5 11 -19 25 -32 14 -13 25 -32 25 -42 0 -10 7 -18 15
-18 9 0 15 9 15 23 0 13 9 32 20 42 11 10 20 22 20 27 0 16 -29 8 -43 -12
l-14 -20 -18 20 c-18 20 -45 27 -45 12z"/>
<path d="M1135 490 c-3 -5 -3 -19 0 -30 5 -16 15 -20 51 -20 26 0 44 -5 44
-11 0 -8 -16 -10 -50 -5 -43 6 -49 4 -44 -9 5 -12 19 -15 63 -13 52 3 56 5 56
28 0 22 -5 25 -40 28 -22 2 -44 8 -50 14 -7 7 6 9 43 5 39 -5 52 -3 49 6 -5
15 -113 22 -122 7z"/>
<path d="M1270 491 c0 -5 10 -11 23 -13 18 -2 23 -10 25 -40 5 -54 32 -52 32
2 0 33 3 40 20 40 11 0 20 5 20 10 0 6 -27 10 -60 10 -33 0 -60 -4 -60 -9z"/>
<path d="M1400 450 l0 -50 60 0 c33 0 60 4 60 10 0 6 -18 10 -39 10 -22 0 -43
5 -46 10 -4 6 10 10 34 10 23 0 41 5 41 10 0 6 -16 10 -35 10 -19 0 -35 5 -35
10 0 6 16 10 35 10 19 0 35 5 35 10 0 6 -25 10 -55 10 l-55 0 0 -50z"/>
<path d="M1540 450 c0 -58 17 -68 22 -12 l3 37 20 -37 c10 -21 25 -38 32 -38
7 0 21 17 32 38 l20 37 1 -37 c0 -27 4 -38 15 -38 11 0 15 12 15 50 0 47 -2
50 -25 50 -18 0 -29 -9 -41 -32 l-17 -33 -15 33 c-11 22 -22 32 -39 32 -21 0
-23 -4 -23 -50z"/>
<path d="M1724 485 c-12 -31 4 -45 51 -45 27 0 45 -5 45 -11 0 -8 -16 -9 -51
-5 -40 5 -50 4 -47 -6 3 -9 24 -13 64 -13 56 0 59 1 59 25 0 22 -5 25 -40 28
-22 2 -44 8 -50 14 -7 7 4 9 38 4 38 -4 47 -3 47 9 0 22 -108 21 -116 0z"/>
</g>
</svg>
