<svg xmlns="http://www.w3.org/2000/svg" xmlns:xlink="http://www.w3.org/1999/xlink" viewBox="0,0,256,256" width="48px" height="48px" fill-rule="nonzero"><g fill="#ffffff" fill-rule="nonzero" stroke="none" stroke-width="1" stroke-linecap="butt" stroke-linejoin="miter" stroke-miterlimit="10" stroke-dasharray="" stroke-dashoffset="0" font-family="none" font-weight="none" font-size="none" text-anchor="none" style="mix-blend-mode: normal"><g transform="scale(5.33333,5.33333)"><path d="M24,4c-7.16,0 -11.107,2.237 -14.025,4.425c-3.201,2.401 -5.662,6.511 -5.765,6.685l1.817,1.079c-1.083,1.92 -2.027,4.535 -2.027,7.811c0,1.53 0.189,3.014 0.516,4.447c0.015,0.078 0.019,0.158 0.035,0.235l0.024,-0.005c2.002,8.31 9.191,14.602 17.944,15.248c0.483,0.048 0.967,0.075 1.45,0.075v-0.002c0.011,0 0.021,0.002 0.031,0.002c11.028,0 20,-8.972 20,-20c0,-11.028 -8.972,-20 -20,-20zM22.992,34c-3.305,-0.005 -5.992,-2.694 -5.992,-6c0,-3.309 2.691,-6 6,-6c1.757,0 3.119,0.697 4.162,2.132c0.567,0.78 1.648,3.356 -0.136,5.876l1.62,1.147c-1.288,1.897 -3.511,2.784 -5.468,2.835c-0.063,0.002 -0.123,0.01 -0.186,0.01zM30.993,22.768c-2.273,-3.438 -5.929,-5.726 -9.973,-5.726c-6.628,0 -12.02,5.374 -12.02,11.979c0,0.454 0.033,0.891 0.068,1.327l-0.733,0.255c-0.374,-0.885 -0.661,-1.814 -0.882,-2.768c-0.635,-3.372 0.245,-7.033 2.339,-9.612c2.243,-2.763 5.751,-4.223 10.144,-4.223c6.019,0 10.481,4.133 11.711,8.54zM24,41c-0.41,0 -0.811,-0.033 -1.214,-0.062c-5.427,-0.528 -10.786,-4.664 -10.786,-11.917c0,-3.844 2.444,-7.122 5.862,-8.4c-2.331,1.628 -3.862,4.326 -3.862,7.379c0,4.958 4.03,8.991 8.985,8.999v0.001c0.003,0 0.005,0 0.008,0c0.003,0 0.005,0 0.008,0c0.291,0 0.588,-0.019 0.887,-0.046c6.203,-0.466 11.112,-5.671 11.112,-12.016c0,-6.592 -6.187,-13.938 -15.064,-13.938c-5.038,0 -8.415,1.624 -10.624,3.462l-0.6,-0.55c0.847,-1.06 1.91,-2.223 3.062,-3.087c2.65,-1.987 5.964,-3.825 12.226,-3.825c9.374,0 17,7.626 17,17c0,9.374 -7.626,17 -17,17z"></path></g></g></svg>